<svg id="Layer_1" data-name="Layer 1" xmlns="http://www.w3.org/2000/svg" viewBox="0 0 107.57 133.14"><defs><style>.cls-1,.cls-2{fill:none;}.cls-1,.cls-2,.cls-4{stroke:#d9be2c;stroke-miterlimit:10;stroke-width:4px;}.cls-1{opacity:0.1;}.cls-2{opacity:0.2;}.cls-3{fill:#d9be2c;}.cls-4{fill:#fff;}</style></defs><title>icons</title><circle class="cls-1" cx="43.97" cy="37.76" r="16.97"/><circle class="cls-2" cx="43.97" cy="37.76" r="10.99"/><path class="cls-3" d="M64.35,4V88.25H4V4H64.35m4-4H0V92.25H68.35V0Z"/><path class="cls-4" d="M106,105.25l-9.44-12.2s.11-9.56-.39-12.69c-.63-3.89-3.41-11.53-5.8-14.67a7.65,7.65,0,0,0-5.58-2.42c-3,.16-6.38-3.13-9.58-.84-1.94,1.39-3.93-.64-6.39-.56-1.57.05-4.89,1.93-4.89,1.93l-7.48-15s-5-12.38-8.73-13C45,35.32,41.16,38.66,42,40.88c1.76,4.47,4.83,9.67,6.12,12.95,1.91,4.84,5.36,14.69,6.75,19.7.91,3.3,3.14,13.15,3.14,13.15s-7.67-3.75-12.72-5C42.79,81,36,84.18,37.55,86.35,40.49,90.4,48,93.76,54.27,97.93c4.87,3.22,11.42,6.79,11.42,6.79l10.64,3.51L92.92,132"/></svg>